<svg width="43" height="43" viewBox="0 0 43 43" fill="none" xmlns="http://www.w3.org/2000/svg">
<path d="M37.625 20.6042C37.6312 22.969 37.0787 25.3018 36.0125 27.4126C34.7484 29.9419 32.805 32.0694 30.4 33.5567C27.9951 35.044 25.2235 35.8323 22.3958 35.8334C20.0311 35.8395 17.6983 35.287 15.5875 34.2209L5.375 37.6251L8.77917 27.4126C7.713 25.3018 7.1605 22.969 7.16667 20.6042C7.16776 17.7765 7.9561 15.005 9.44337 12.6C10.9306 10.1951 13.0581 8.25169 15.5875 6.98755C17.6983 5.92139 20.0311 5.36889 22.3958 5.37505H23.2917C27.0261 5.58108 30.5534 7.15733 33.198 9.80201C35.8427 12.4467 37.419 15.9739 37.625 19.7084V20.6042Z" stroke="#1E1E1E" stroke-width="4" stroke-linecap="round" stroke-linejoin="round"/>
</svg>
