<svg width="26" height="24" viewBox="0 0 26 24" fill="none" xmlns="http://www.w3.org/2000/svg">
<path d="M6.13026 17.1C7.02098 16.45 8.01648 15.9375 9.11678 15.5625C10.2171 15.1875 11.3698 15 12.5749 15C13.78 15 14.9327 15.1875 16.033 15.5625C17.1333 15.9375 18.1288 16.45 19.0195 17.1C19.6308 16.4167 20.1067 15.6417 20.4472 14.775C20.7878 13.9083 20.9581 12.9833 20.9581 12C20.9581 9.78333 20.1416 7.89583 18.5086 6.3375C16.8756 4.77917 14.8977 4 12.5749 4C10.252 4 8.27409 4.77917 6.64111 6.3375C5.00813 7.89583 4.19163 9.78333 4.19163 12C4.19163 12.9833 4.36192 13.9083 4.70249 14.775C5.04306 15.6417 5.51898 16.4167 6.13026 17.1ZM12.5749 13C11.5444 13 10.6755 12.6625 9.96821 11.9875C9.26087 11.3125 8.9072 10.4833 8.9072 9.5C8.9072 8.51667 9.26087 7.6875 9.96821 7.0125C10.6755 6.3375 11.5444 6 12.5749 6C13.6053 6 14.4742 6.3375 15.1815 7.0125C15.8889 7.6875 16.2425 8.51667 16.2425 9.5C16.2425 10.4833 15.8889 11.3125 15.1815 11.9875C14.4742 12.6625 13.6053 13 12.5749 13ZM12.5749 22C11.1253 22 9.76299 21.7375 8.48804 21.2125C7.21309 20.6875 6.10406 19.975 5.16095 19.075C4.21783 18.175 3.4712 17.1167 2.92105 15.9C2.3709 14.6833 2.09583 13.3833 2.09583 12C2.09583 10.6167 2.3709 9.31667 2.92105 8.1C3.4712 6.88333 4.21783 5.825 5.16095 4.925C6.10406 4.025 7.21309 3.3125 8.48804 2.7875C9.76299 2.2625 11.1253 2 12.5749 2C14.0245 2 15.3867 2.2625 16.6617 2.7875C17.9366 3.3125 19.0457 4.025 19.9888 4.925C20.9319 5.825 21.6785 6.88333 22.2287 8.1C22.7788 9.31667 23.0539 10.6167 23.0539 12C23.0539 13.3833 22.7788 14.6833 22.2287 15.9C21.6785 17.1167 20.9319 18.175 19.9888 19.075C19.0457 19.975 17.9366 20.6875 16.6617 21.2125C15.3867 21.7375 14.0245 22 12.5749 22Z" fill="#1D1B20"/>
</svg>
